<?xml version="1.0" encoding="utf-8"?>
<!-- Generator: Adobe Illustrator 21.1.0, SVG Export Plug-In . SVG Version: 6.00 Build 0)  -->
<svg version="1.1" id="Слой_2" xmlns="http://www.w3.org/2000/svg" xmlns:xlink="http://www.w3.org/1999/xlink" x="0px" y="0px"
	 viewBox="0 0 30.8 17.2" style="enable-background:new 0 0 30.8 17.2;" xml:space="preserve">
<style type="text/css">
	.st0{fill:#94C4DB;}
</style>
<path class="st0" d="M26,0.6c-0.4-0.4-1-0.5-1.4-0.1c-0.4,0.4-0.5,1-0.1,1.4l2.8,3.2H13.6c-0.6,0-1,0.4-1,1s0.4,1,1,1H27l-2.5,2.5
	c-0.4,0.4-0.4,1,0,1.4c0.2,0.2,0.4,0.3,0.7,0.3c0.3,0,0.5-0.1,0.7-0.3l4.8-4.9L26,0.6z"/>
<path class="st0" d="M5.1,6.5c0.4-0.4,1-0.5,1.4-0.1c0.4,0.4,0.5,1,0.1,1.4L3.9,11h13.7c0.6,0,1,0.4,1,1s-0.4,1-1,1H4.1l2.5,2.5
	c0.4,0.4,0.4,1,0,1.4c-0.2,0.2-0.4,0.3-0.7,0.3c-0.3,0-0.5-0.1-0.7-0.3L0.3,12L5.1,6.5z"/>
</svg>
